<svg xmlns="http://www.w3.org/2000/svg" version="1.1" xmlns:xlink="http://www.w3.org/1999/xlink" xmlns:svgjs="http://svgjs.com/svgjs" width="512" height="512" x="0" y="0" viewBox="0 0 512 512" style="enable-background:new 0 0 512 512" xml:space="preserve" class=""><g>
<path xmlns="http://www.w3.org/2000/svg" style="" d="M511.16,10.12L351.041,312.778c-1.753,3.316-5.3,5.289-9.036,5.017l-137.922-9.875v-0.011  l-9.876-137.912c-0.094-1.322,0.084-2.624,0.525-3.831c0.199-0.598,0.472-1.175,0.808-1.721c0.325-0.535,0.703-1.049,1.133-1.522  c0.147-0.157,0.294-0.304,0.451-0.451c0.147-0.157,0.315-0.304,0.472-0.43c0.504-0.409,1.039-0.777,1.627-1.081L501.882,0.832  c2.991-1.585,6.108-0.756,8.06,1.228C511.926,4.022,512.744,7.129,511.16,10.12z" fill="#d9eef7" data-original="#d9eef7"></path>
<path xmlns="http://www.w3.org/2000/svg" style="" d="M511.16,10.12L351.041,312.778c-1.753,3.316-5.3,5.289-9.036,5.017l-137.922-9.875l17.988-17.988  L474.816,37.186L509.942,2.06C511.926,4.022,512.744,7.129,511.16,10.12z" fill="#a7bac6" data-original="#a7bac6"></path>
<path xmlns="http://www.w3.org/2000/svg" style="" d="M511.16,10.12L351.041,312.778c-1.753,3.316-5.3,5.289-9.036,5.017l-137.922-9.875l17.988-17.988  l114.687,8.207L474.816,37.186L509.942,2.06C511.926,4.022,512.744,7.129,511.16,10.12z" fill="#798d9d" data-original="#798d9d"></path>
<path xmlns="http://www.w3.org/2000/svg" style="" d="M474.816,37.186L213.864,175.234l8.207,114.687l-17.988,17.988v0.011h-0.01l-9.876-137.922  c-0.094-1.322,0.094-2.624,0.535-3.831c0.199-0.598,0.472-1.175,0.808-1.721c0.315-0.546,0.703-1.06,1.133-1.522  c0.147-0.157,0.294-0.304,0.451-0.451c0.147-0.157,0.315-0.304,0.472-0.43c0.493-0.42,1.039-0.787,1.616-1.091l302.67-160.12  c2.991-1.585,6.108-0.756,8.06,1.228L474.816,37.186z" fill="#a7bac6" data-original="#a7bac6"></path>
<polygon xmlns="http://www.w3.org/2000/svg" style="" points="235.147,309.965 210.359,334.754 201.029,344.094 189.894,355.219 176.807,368.306   165.347,379.766 142.867,402.246 109.756,369.124 140.432,338.448 151.903,326.988 156.783,322.108 167.907,310.973   177.248,301.643 188.372,290.508 202.036,276.854 " fill="#c39991" data-original="#c39991"></polygon>
<path xmlns="http://www.w3.org/2000/svg" style="" d="M147.665,364.336c-5.711-5.711-11.952-10.549-18.58-14.533l-19.326,19.326l33.112,33.112  l19.326-19.326C158.214,376.288,153.376,370.047,147.665,364.336z" fill="#c2705f" data-original="#c2705f"></path>
<path xmlns="http://www.w3.org/2000/svg" style="" d="M135.081,376.924c-30.9-30.9-81.001-30.891-111.901,0.009s-30.9,80.991,0,111.892  c30.9,30.9,80.991,30.9,111.892,0S165.982,407.824,135.081,376.924z M49.404,462.601c-16.421-16.421-16.421-43.041-0.009-59.453  c16.421-16.421,43.041-16.421,59.462,0c16.412,16.412,16.412,43.032-0.009,59.453C92.436,479.013,65.817,479.013,49.404,462.601z" fill="#a7bac6" data-original="#a7bac6"></path>
<g xmlns="http://www.w3.org/2000/svg">
	<polygon style="" points="176.807,368.306 165.347,379.766 140.432,338.448 151.903,326.988  " fill="#c2705f" data-original="#c2705f"></polygon>
	<polygon style="" points="201.029,344.094 189.894,355.219 156.783,322.108 167.907,310.973  " fill="#c2705f" data-original="#c2705f"></polygon>
	<polygon style="" points="221.494,323.619 210.359,334.754 177.248,301.643 188.372,290.508  " fill="#c2705f" data-original="#c2705f"></polygon>
</g>
<g xmlns="http://www.w3.org/2000/svg">
</g>
<g xmlns="http://www.w3.org/2000/svg">
</g>
<g xmlns="http://www.w3.org/2000/svg">
</g>
<g xmlns="http://www.w3.org/2000/svg">
</g>
<g xmlns="http://www.w3.org/2000/svg">
</g>
<g xmlns="http://www.w3.org/2000/svg">
</g>
<g xmlns="http://www.w3.org/2000/svg">
</g>
<g xmlns="http://www.w3.org/2000/svg">
</g>
<g xmlns="http://www.w3.org/2000/svg">
</g>
<g xmlns="http://www.w3.org/2000/svg">
</g>
<g xmlns="http://www.w3.org/2000/svg">
</g>
<g xmlns="http://www.w3.org/2000/svg">
</g>
<g xmlns="http://www.w3.org/2000/svg">
</g>
<g xmlns="http://www.w3.org/2000/svg">
</g>
<g xmlns="http://www.w3.org/2000/svg">
</g>
</g></svg>