<svg xmlns="http://www.w3.org/2000/svg" version="1.1" xmlns:xlink="http://www.w3.org/1999/xlink" xmlns:svgjs="http://svgjs.com/svgjs" width="512" height="512" x="0" y="0" viewBox="0 0 512 512" style="enable-background:new 0 0 512 512" xml:space="preserve" class=""><g><linearGradient xmlns="http://www.w3.org/2000/svg" id="linear-gradient" gradientUnits="userSpaceOnUse" x1="256.248" x2="256.248" y1="389.254" y2="121.81"><stop offset="0" stop-color="#313131"></stop><stop offset="1" stop-color="#414141"></stop></linearGradient><linearGradient xmlns="http://www.w3.org/2000/svg" id="linear-gradient-2" gradientTransform="matrix(.707 -.707 .707 .707 2648.056 -8784.415)" gradientUnits="userSpaceOnUse" x1="-8126.949" x2="-8039.993" y1="4874.546" y2="4787.589"><stop offset="0" stop-color="#aeb6d6"></stop><stop offset="1" stop-color="#cdd4ec"></stop></linearGradient><linearGradient xmlns="http://www.w3.org/2000/svg" id="linear-gradient-3" x1="-8126.95" x2="-8039.994" xmlns:xlink="http://www.w3.org/1999/xlink" xlink:href="#linear-gradient-2" y1="4614.299" y2="4527.343"></linearGradient><linearGradient xmlns="http://www.w3.org/2000/svg" id="linear-gradient-4" x1="-8257.073" x2="-8170.116" xmlns:xlink="http://www.w3.org/1999/xlink" xlink:href="#linear-gradient-2" y1="4744.423" y2="4657.466"></linearGradient><linearGradient xmlns="http://www.w3.org/2000/svg" id="linear-gradient-5" x1="-7996.827" x2="-7909.87" xmlns:xlink="http://www.w3.org/1999/xlink" xlink:href="#linear-gradient-2" y1="4744.422" y2="4657.465"></linearGradient><linearGradient xmlns="http://www.w3.org/2000/svg" id="linear-gradient-6" x1="256.249" x2="256.249" xmlns:xlink="http://www.w3.org/1999/xlink" xlink:href="#linear-gradient-2" y1="320.12" y2="190.944"></linearGradient><g xmlns="http://www.w3.org/2000/svg" id="Layer_16" data-name="Layer 16"><path d="m389.971 121.81-133.723 39.166-133.722-39.166 39.166 133.722-39.166 133.722 133.722-39.167 133.723 39.167-39.171-133.722zm-133.723 167.59a33.87 33.87 0 1 1 33.87-33.87 33.87 33.87 0 0 1 -33.87 33.87z" fill="url(#linear-gradient)" data-original="url(#linear-gradient)"></path><path d="m256.249 338.057-129.868 38.038-3.854 13.16 133.722-39.167 133.722 39.167-3.854-13.16z" fill="#2d2d2d" data-original="#2d2d2d"></path><path d="m256.249 172.601 129.998-38.075 3.724-12.717-133.722 39.167-133.722-39.167 3.723 12.717z" fill="#4d4d4d" data-original="#4d4d4d"></path><path d="m362.161 340.676 7.6 28.369-28.369-7.6a56.551 56.551 0 0 0 -54.621 14.636l122.977 32.949-32.948-122.975a56.548 56.548 0 0 0 -14.639 54.621z" fill="url(#linear-gradient-2)" data-original="url(#linear-gradient-2)"></path><path d="m150.336 170.388-7.6-28.369 28.369 7.6a56.546 56.546 0 0 0 54.621-14.636l-122.976-32.95 32.95 122.975a56.546 56.546 0 0 0 14.636-54.62z" fill="url(#linear-gradient-3)" data-original="url(#linear-gradient-3)"></path><path d="m171.1 361.444-28.368 7.6 7.6-28.37a56.551 56.551 0 0 0 -14.632-54.619l-32.95 122.976 122.975-32.952a56.548 56.548 0 0 0 -54.625-14.635z" fill="url(#linear-gradient-4)" data-original="url(#linear-gradient-4)"></path><path d="m298.968 366.828a56.49 56.49 0 0 0 -12.2 9.252l122.977 32.95-3.614-13.488z" fill="#989fb7" data-original="#989fb7"></path><path d="m106.363 395.544-3.613 13.486 122.974-32.95a56.393 56.393 0 0 0 -12.2-9.252z" fill="#989fb7" data-original="#989fb7"></path><path d="m341.393 149.62 28.368-7.6-7.6 28.37a56.547 56.547 0 0 0 14.636 54.62l32.951-122.975-122.976 32.949a56.546 56.546 0 0 0 54.621 14.636z" fill="url(#linear-gradient-5)" data-original="url(#linear-gradient-5)"></path><path d="m217.405 141.835a56.419 56.419 0 0 0 8.319-6.851l-122.974-32.95 2.62 9.782z" fill="#e3eaff" data-original="#e3eaff"></path><path d="m407.125 111.815 2.621-9.781-122.975 32.95a56.59 56.59 0 0 0 8.321 6.851z" fill="#e3eaff" data-original="#e3eaff"></path><path d="m256.249 190.944a64.588 64.588 0 1 0 64.588 64.589 64.588 64.588 0 0 0 -64.588-64.589zm0 98.458a33.87 33.87 0 1 1 33.869-33.871 33.87 33.87 0 0 1 -33.869 33.869z" fill="url(#linear-gradient-6)" data-original="url(#linear-gradient-6)"></path><g fill="#e3eaff"><path d="m256.249 201.675a64.557 64.557 0 0 1 64.317 59.225c.147-1.773.271-3.555.271-5.365a64.588 64.588 0 1 0 -129.176 0c0 1.81.123 3.592.27 5.365a64.557 64.557 0 0 1 64.318-59.225z" fill="#e3eaff" data-original="#e3eaff"></path><circle cx="383.711" cy="126.809" r="4.875" fill="#e3eaff" data-original="#e3eaff"></circle><circle cx="258.298" cy="209.816" r="4.875" fill="#e3eaff" data-original="#e3eaff"></circle><circle cx="396.355" cy="121.934" r="3.452" fill="#e3eaff" data-original="#e3eaff"></circle><circle cx="270.761" cy="209.816" r="3.452" fill="#e3eaff" data-original="#e3eaff"></circle><circle cx="116.142" cy="121.809" r="3.452" fill="#e3eaff" data-original="#e3eaff"></circle></g><path d="m256 325.588a69.588 69.588 0 1 1 69.589-69.588 69.667 69.667 0 0 1 -69.589 69.588zm0-129.176a59.588 59.588 0 1 0 59.589 59.588 59.657 59.657 0 0 0 -59.589-59.588zm0 98.458a38.87 38.87 0 1 1 38.869-38.87 38.913 38.913 0 0 1 -38.869 38.87zm0-67.74a28.87 28.87 0 1 0 28.869 28.87 28.9 28.9 0 0 0 -28.869-28.87z" fill="#000000" data-original="#000000"></path><path d="m294.869 256a38.87 38.87 0 1 0 -38.869 38.869 38.914 38.914 0 0 0 38.869-38.869zm-67.739 0a28.87 28.87 0 1 1 28.87 28.869 28.9 28.9 0 0 1 -28.87-28.869z" fill="#000000" data-original="#000000"></path><path d="m414.329 408.2-32.952-122.97a5 5 0 0 0 -8.365-2.242 61.083 61.083 0 0 0 -6.918 8.274l-10.328-35.262 10.327-35.261a61.164 61.164 0 0 0 6.919 8.274 5 5 0 0 0 8.365-2.241l32.951-122.972a5 5 0 0 0 -6.124-6.124l-122.975 32.946a5 5 0 0 0 -2.241 8.365 61.009 61.009 0 0 0 8.274 6.918l-35.262 10.329-35.262-10.329a61.075 61.075 0 0 0 8.274-6.917 5 5 0 0 0 -2.241-8.366l-122.971-32.95a5 5 0 0 0 -6.124 6.124l32.951 122.975a5 5 0 0 0 8.365 2.241 61.164 61.164 0 0 0 6.919-8.274l10.322 35.262-10.328 35.263a61.083 61.083 0 0 0 -6.918-8.274 5 5 0 0 0 -8.365 2.242l-32.95 122.974a5 5 0 0 0 6.124 6.124l122.975-32.952a5 5 0 0 0 2.241-8.366 61.14 61.14 0 0 0 -8.273-6.917l35.261-10.328 35.261 10.328a61.136 61.136 0 0 0 -8.273 6.918 5 5 0 0 0 2.241 8.365l122.976 32.951a5 5 0 0 0 6.124-6.124zm-11.9-298.632-28.229 105.332a51.723 51.723 0 0 1 -7.463-42.752l7.6-28.37a5 5 0 0 0 -6.124-6.124l-28.369 7.6a51.728 51.728 0 0 1 -42.75-7.463zm-264.634 105.332-28.223-105.327 105.328 28.222a51.734 51.734 0 0 1 -42.751 7.463l-28.369-7.6a5 5 0 0 0 -6.124 6.124l7.6 28.369a51.723 51.723 0 0 1 -7.461 42.749zm-28.222 187.528 28.222-105.328a51.72 51.72 0 0 1 7.463 42.751l-7.6 28.369a5 5 0 0 0 6.124 6.124l28.368-7.6a51.729 51.729 0 0 1 42.75 7.456zm147.827-56.671a5.011 5.011 0 0 0 -2.81 0l-46.416 13.595a61.62 61.62 0 0 0 -38.617-2.269l-20 5.361 5.359-20a61.648 61.648 0 0 0 -2.271-38.617l13.6-46.418a4.993 4.993 0 0 0 0-2.81l-13.595-46.416a61.645 61.645 0 0 0 2.271-38.616l-5.36-20 20 5.359a61.653 61.653 0 0 0 38.614-2.271l46.419 13.6a5.011 5.011 0 0 0 2.81 0l46.419-13.595a61.687 61.687 0 0 0 38.614 2.271l20-5.36-5.36 20a61.645 61.645 0 0 0 2.271 38.616l-13.595 46.416a4.993 4.993 0 0 0 0 2.81l13.595 46.418a61.645 61.645 0 0 0 -2.269 38.616l5.36 20-20-5.361a61.637 61.637 0 0 0 -38.618 2.271zm39.7 28.443a51.711 51.711 0 0 1 42.751-7.463l28.37 7.6a5 5 0 0 0 6.124-6.124l-7.6-28.369a51.72 51.72 0 0 1 7.455-42.744l28.224 105.328z" fill="#000000" data-original="#000000"></path></g></g></svg>